<?xml version="1.0" standalone="no"?>
<!DOCTYPE svg PUBLIC "-//W3C//DTD SVG 20010904//EN"
 "http://www.w3.org/TR/2001/REC-SVG-20010904/DTD/svg10.dtd">
<svg version="1.0" xmlns="http://www.w3.org/2000/svg"
 width="816.000000pt" height="980.000000pt" viewBox="0 0 816.000000 980.000000"
 preserveAspectRatio="xMidYMid meet">

<g transform="translate(0.000000,980.000000) scale(0.100000,-0.100000)"
fill="#000000" stroke="none">
<path d="M1480 9785 c-246 -39 -482 -159 -661 -338 -192 -190 -315 -444 -349
-717 -5 -46 -10 -232 -10 -412 l0 -327 403 -3 402 -4 80 -27 c349 -117 540
-467 449 -822 -45 -172 -185 -345 -344 -423 -151 -74 -157 -75 -597 -80 l-393
-4 0 -524 0 -524 363 0 c383 -1 461 -7 565 -49 196 -78 351 -254 408 -461 24
-87 24 -253 0 -340 -64 -235 -244 -416 -481 -486 -52 -15 -115 -18 -458 -21
l-397 -4 2 -527 3 -527 410 -5 c389 -5 413 -6 475 -27 100 -34 188 -90 272
-174 62 -63 85 -94 121 -170 58 -120 72 -181 71 -304 0 -118 -20 -201 -70
-301 -68 -136 -178 -243 -319 -310 -122 -59 -167 -64 -587 -64 l-378 0 0 -328
c0 -180 5 -366 10 -412 34 -273 157 -527 349 -717 189 -189 439 -311 701 -342
70 -9 808 -11 2845 -9 2610 3 2754 5 2825 22 248 59 439 164 605 330 168 169
270 353 332 603 16 63 17 323 20 3888 3 2651 0 3845 -7 3902 -31 236 -125 449
-282 632 -160 189 -375 320 -632 389 l-101 27 -2780 2 c-2282 1 -2795 -1
-2865 -12z m3298 -2424 c458 -100 818 -473 897 -929 19 -109 19 -305 0 -414
-114 -655 -775 -1082 -1425 -921 -324 80 -614 316 -760 617 -350 720 101 1555
900 1666 93 13 285 3 388 -19z m488 -2706 c271 -47 494 -164 695 -364 153
-153 247 -302 314 -504 56 -168 65 -251 65 -610 l0 -317 -1807 2 -1808 3 1
330 c0 273 3 346 18 420 93 476 430 855 886 1000 166 52 186 53 891 54 547 1
671 -2 745 -14z"/>
<path d="M288 7675 c-104 -28 -198 -110 -246 -213 -23 -49 -27 -70 -27 -152 1
-83 4 -102 28 -151 61 -125 167 -202 303 -220 95 -12 753 -11 839 1 171 25
292 141 326 312 27 137 -44 297 -169 377 -91 58 -122 61 -587 60 -311 -1 -432
-4 -467 -14z"/>
<path d="M311 5269 c-109 -21 -212 -102 -263 -207 -30 -61 -33 -74 -33 -162 0
-88 3 -101 33 -162 53 -109 153 -186 271 -208 75 -14 825 -13 893 1 201 43
336 238 298 431 -31 159 -143 274 -298 307 -63 13 -833 14 -901 0z"/>
<path d="M249 2837 c-72 -30 -110 -57 -153 -110 -61 -74 -79 -129 -80 -237 -1
-83 2 -102 26 -152 49 -106 142 -185 250 -214 81 -21 860 -20 943 1 144 38
245 149 275 303 31 155 -58 326 -208 399 l-57 28 -470 2 -470 3 -56 -23z"/>
</g>
</svg>
